<svg width="400" height="400" viewBox="0 0 400 400" fill="none" xmlns="http://www.w3.org/2000/svg">
<mask id="mask0_30_892" style="mask-type:luminance" maskUnits="userSpaceOnUse" x="0" y="0" width="400" height="400">
<path d="M400 0H0V400H400V0Z" fill="white"/>
</mask>
<g mask="url(#mask0_30_892)">
<mask id="mask1_30_892" style="mask-type:luminance" maskUnits="userSpaceOnUse" x="0" y="0" width="400" height="400">
<path d="M0 0H400V400H0V0Z" fill="white"/>
</mask>
<g mask="url(#mask1_30_892)">
<mask id="mask2_30_892" style="mask-type:luminance" maskUnits="userSpaceOnUse" x="24" y="24" width="352" height="352">
<path d="M24 24H376V376H24V24Z" fill="white"/>
</mask>
<g mask="url(#mask2_30_892)">
<path d="M222.441 69.3203H185.921L123.001 76.8003L63.6005 116.84L46.4405 140.6L38.5205 181.52L66.2125 243.86L88.2405 238.28L126.081 229.48L117.281 261.6L130.041 283.16L225.081 262.92L277.441 335.08L265.451 261.93L323.201 275.68L348.721 263.36L359.281 245.76L362.361 220.68L356.201 180.2L338.106 140.729L306.481 104.52L288.441 91.3203L263.361 80.3203L244.001 72.8403L222.441 69.3203Z" stroke="#B5E7A0" stroke-width="3.52"/>
<path d="M47.4143 144.221L64.2209 165.22L39.8955 180.751L87.9934 238.281L64.2757 165.165L61.9069 234.102" stroke="#B5E7A0" stroke-width="3.51901"/>
<path d="M121.021 138.4L183.721 71.3003L239.821 112.88L207.041 112.66L184.271 74.4903L177.121 128.83L134.991 124.98" stroke="#B5E7A0" stroke-width="3.52"/>
<path d="M205.501 115.08L177.901 129.824L136.421 152.37L192.851 166.01L178.661 130.81L238.941 140.6L205.501 115.08Z" stroke="#B5E7A0" stroke-width="3.52"/>
<path d="M64.9205 116.18L64.4805 166.34L90.4405 113.54L85.3805 104.3L93.9605 112.66L117.5 111.12L185.26 71.52L123.22 77.46L117.775 108.81L127.18 227.5L90.2205 237.18L124.32 208.58L66.9005 168.98L175.8 192.52L93.0805 115.52L98.8005 146.98L67.3405 165.46" stroke="#B5E7A0" stroke-width="3.52"/>
<g opacity="0.0721359">
<path d="M344.792 265.256C347.152 264.118 348.72 263.36 348.72 263.36L359.28 245.76L362.36 220.68L356.2 180.2L338.106 140.729L306.48 104.52L288.44 91.3201C288.44 91.3201 285.736 90.1338 282.104 88.541" stroke="#E0E0E0" stroke-width="3.52"/>
<path d="M65.2921 168.299C64.6455 166.304 64.2758 165.165 64.2758 165.165C64.2758 165.165 63.1771 197.138 62.4766 217.534" stroke="#E0E0E0" stroke-width="3.51901"/>
<path d="M183.086 83.4927C181.054 98.9349 177.121 128.83 177.121 128.83C177.121 128.83 165.942 127.809 155.101 126.818" stroke="#E0E0E0" stroke-width="3.52"/>
<path d="M208.66 135.682C223.777 138.137 238.941 140.6 238.941 140.6C238.941 140.6 228.102 132.328 218.766 125.204" stroke="#E0E0E0" stroke-width="3.52"/>
</g>
<path d="M179.101 194.5L127.841 230.58L131.251 279.86L170.521 250.27L179.101 194.5Z" stroke="#B5E7A0" stroke-width="3.52"/>
<path d="M182.841 271.5L218.261 234.54" stroke="#B5E7A0" stroke-width="3.52"/>
<path d="M170.466 244.605C172.895 244.605 174.866 246.577 174.866 249.005C174.866 251.434 172.895 253.405 170.466 253.405C168.038 253.405 166.066 251.434 166.066 249.005C166.066 246.577 168.038 244.605 170.466 244.605Z" fill="#B5E7A0"/>
<path d="M222.22 70.2002L244 114.2L288.55 93.7402L263.03 81.0902L243.56 119.7L231.02 173.82L216.72 203.3L193.62 166.78L235.64 141.7L270.4 166.835L233 174.15L197.58 167.33L179.54 192.19L217.6 234.1L216.775 204.126L270.455 167.385L313.19 160.51L291.85 203.63" stroke="#B5E7A0" stroke-width="3.52"/>
<path d="M216.228 232.588C217.105 233.555 217.6 234.1 217.6 234.1L216.776 204.126L270.456 167.385L313.19 160.51C313.19 160.51 305.976 175.087 299.938 187.29" stroke="#E0E0E0" stroke-width="3.52"/>
<path d="M287.608 92.3438L290.028 129.084L333.148 141.844L323.285 150.743L312.908 160.104L290.248 132.384L272.648 165.384L292.888 204.764L326.548 241.559L355.368 181.224L313.018 161.864" stroke="#B5E7A0" stroke-width="3.52"/>
<path d="M64.2054 240.589C66.6034 240.589 68.5504 242.536 68.5504 244.934C68.5504 247.332 66.6034 249.279 64.2054 249.279C61.8073 249.279 59.8604 247.332 59.8604 244.934C59.8604 242.536 61.8073 240.589 64.2054 240.589Z" fill="#242E20"/>
<path d="M64.1721 112.703C66.3458 112.703 68.1107 114.468 68.1107 116.642C68.1107 118.816 66.3458 120.58 64.1721 120.58C61.9983 120.58 60.2334 118.816 60.2334 116.642C60.2334 114.468 61.9983 112.703 64.1721 112.703Z" fill="#B5E7A0"/>
<path d="M274.8 327.16L248.62 273.15L225.74 262.04L216.94 235.2L248.84 273.48L262.92 260.06L288.77 206.93L219.36 232.34L274.58 230.58L294.38 266.66L290.75 206.93L322.98 273.04L328.26 242.46L360.82 221.12L347.4 262.7L328.48 242.68L361.26 245.76" stroke="#B5E7A0" stroke-width="3.52"/>
<path d="M97.9199 145.44L150.72 214.08" stroke="#B5E7A0" stroke-width="3.52"/>
<path d="M243.56 111.56L273.92 165.24L248.84 221.12" stroke="#B5E7A0" stroke-width="3.52"/>
<path d="M243.45 102.821C248.516 102.821 252.63 106.934 252.63 112C252.63 117.067 248.516 121.18 243.45 121.18C238.384 121.18 234.271 117.067 234.271 112C234.271 106.934 238.384 102.821 243.45 102.821Z" fill="#242E20"/>
<path d="M223.21 63.3364C226.149 63.3364 228.534 65.722 228.534 68.6602C228.534 71.5983 226.149 73.9839 223.21 73.9839C220.272 73.9839 217.887 71.5983 217.887 68.6602C217.887 65.722 220.272 63.3364 223.21 63.3364Z" fill="#242E20"/>
<path d="M263.031 74.9966C265.969 74.9966 268.354 77.3821 268.354 80.3203C268.354 83.2585 265.969 85.644 263.031 85.644C260.093 85.644 257.707 83.2585 257.707 80.3203C257.707 77.3821 260.093 74.9966 263.031 74.9966Z" fill="#E0E0E0"/>
<path d="M287.89 86.729C291.395 86.729 294.241 89.5749 294.241 93.08C294.241 96.5851 291.395 99.431 287.89 99.431C284.385 99.431 281.539 96.5851 281.539 93.08C281.539 89.5749 284.385 86.729 287.89 86.729Z" fill="#242E20"/>
<path d="M290.09 124.129C293.595 124.129 296.441 126.975 296.441 130.48C296.441 133.985 293.595 136.831 290.09 136.831C286.585 136.831 283.739 133.985 283.739 130.48C283.739 126.975 286.585 124.129 290.09 124.129Z" fill="#242E20"/>
<path d="M313.08 156.021C315.619 156.021 317.68 158.082 317.68 160.62C317.68 163.159 315.619 165.22 313.08 165.22C310.542 165.22 308.48 163.159 308.48 160.62C308.48 158.082 310.542 156.021 313.08 156.021Z" fill="#242E20"/>
<path d="M355.651 175.145C358.623 175.145 361.036 177.558 361.036 180.53C361.036 183.502 358.623 185.915 355.651 185.915C352.679 185.915 350.266 183.502 350.266 180.53C350.266 177.558 352.679 175.145 355.651 175.145Z" fill="#E0E0E0"/>
<path d="M361.371 216.339C363.706 216.339 365.602 218.235 365.602 220.57C365.602 222.905 363.706 224.801 361.371 224.801C359.036 224.801 357.14 222.905 357.14 220.57C357.14 218.235 359.036 216.339 361.371 216.339Z" fill="#242E20"/>
<path d="M358.51 240.913C361.55 240.913 364.018 243.381 364.018 246.42C364.018 249.46 361.55 251.928 358.51 251.928C355.471 251.928 353.003 249.46 353.003 246.42C353.003 243.381 355.471 240.913 358.51 240.913Z" fill="#242E20"/>
<path d="M348.391 260.309C350.56 260.309 352.322 262.07 352.322 264.24C352.322 266.41 350.56 268.172 348.391 268.172C346.221 268.172 344.459 266.41 344.459 264.24C344.459 262.07 346.221 260.309 348.391 260.309Z" fill="#242E20"/>
<path d="M293.94 264.599C296.11 264.599 297.872 266.36 297.872 268.53C297.872 270.7 296.11 272.462 293.94 272.462C291.771 272.462 290.009 270.7 290.009 268.53C290.009 266.36 291.771 264.599 293.94 264.599Z" fill="#242E20"/>
<path d="M248.62 267.679C250.79 267.679 252.552 269.44 252.552 271.61C252.552 273.78 250.79 275.542 248.62 275.542C246.45 275.542 244.688 273.78 244.688 271.61C244.688 269.44 246.45 267.679 248.62 267.679Z" fill="#E0E0E0"/>
<path d="M225.52 260.255C227.416 260.255 228.956 261.794 228.956 263.69C228.956 265.586 227.416 267.126 225.52 267.126C223.624 267.126 222.085 265.586 222.085 263.69C222.085 261.794 223.624 260.255 225.52 260.255Z" fill="#242E20"/>
<path d="M181.961 268.175C183.857 268.175 185.396 269.714 185.396 271.61C185.396 273.506 183.857 275.046 181.961 275.046C180.065 275.046 178.525 273.506 178.525 271.61C178.525 269.714 180.065 268.175 181.961 268.175Z" fill="#E0E0E0"/>
<path d="M117.28 257.615C119.176 257.615 120.716 259.154 120.716 261.05C120.716 262.946 119.176 264.486 117.28 264.486C115.384 264.486 113.845 262.946 113.845 261.05C113.845 259.154 115.384 257.615 117.28 257.615Z" fill="#242E20"/>
<path d="M46.0008 139.915C47.8968 139.915 49.4362 141.454 49.4362 143.35C49.4362 145.246 47.8968 146.785 46.0008 146.785C44.1048 146.785 42.5654 145.246 42.5654 143.35C42.5654 141.454 44.1048 139.915 46.0008 139.915Z" fill="#242E20"/>
<path d="M134.221 121.435C136.117 121.435 137.656 122.974 137.656 124.87C137.656 126.766 136.117 128.305 134.221 128.305C132.325 128.305 130.785 126.766 130.785 124.87C130.785 122.974 132.325 121.435 134.221 121.435Z" fill="#242E20"/>
<path d="M123.66 204.61C126.033 204.61 127.96 206.537 127.96 208.91C127.96 211.283 126.033 213.21 123.66 213.21C121.287 213.21 119.36 211.283 119.36 208.91C119.36 206.537 121.287 204.61 123.66 204.61Z" fill="#242E20"/>
<path d="M97.92 142.79C100.293 142.79 102.22 144.717 102.22 147.09C102.22 149.463 100.293 151.39 97.92 151.39C95.5469 151.39 93.6201 149.463 93.6201 147.09C93.6201 144.717 95.5469 142.79 97.92 142.79Z" fill="#E0E0E0"/>
<path d="M178.441 124.97C180.814 124.97 182.74 126.897 182.74 129.27C182.74 131.643 180.814 133.57 178.441 133.57C176.067 133.57 174.141 131.643 174.141 129.27C174.141 126.897 176.067 124.97 178.441 124.97Z" fill="#E0E0E0"/>
<path d="M122.78 73.0503C125.153 73.0503 127.08 74.9771 127.08 77.3502C127.08 79.7233 125.153 81.6501 122.78 81.6501C120.407 81.6501 118.48 79.7233 118.48 77.3502C118.48 74.9771 120.407 73.0503 122.78 73.0503Z" fill="#242E20"/>
<path d="M39.8404 175.466C42.8784 175.466 45.3449 177.932 45.3449 180.97C45.3449 184.008 42.8784 186.475 39.8404 186.475C36.8025 186.475 34.3359 184.008 34.3359 180.97C34.3359 177.932 36.8025 175.466 39.8404 175.466Z" fill="#E0E0E0"/>
<path d="M276.78 228.299C278.95 228.299 280.712 230.061 280.712 232.23C280.712 234.4 278.95 236.162 276.78 236.162C274.61 236.162 272.849 234.4 272.849 232.23C272.849 230.061 274.61 228.299 276.78 228.299Z" fill="#E0E0E0"/>
<path d="M194.721 163.398C196.89 163.398 198.652 165.16 198.652 167.33C198.652 169.5 196.89 171.262 194.721 171.262C192.551 171.262 190.789 169.5 190.789 167.33C190.789 165.16 192.551 163.398 194.721 163.398Z" fill="#242E20"/>
<path d="M264.461 256.146C267.41 256.146 269.805 258.541 269.805 261.49C269.805 264.439 267.41 266.834 264.461 266.834C261.512 266.834 259.117 264.439 259.117 261.49C259.117 258.541 261.512 256.146 264.461 256.146Z" fill="#242E20"/>
<path d="M217.82 228.646C220.769 228.646 223.164 231.041 223.164 233.99C223.164 236.939 220.769 239.334 217.82 239.334C214.871 239.334 212.477 236.939 212.477 233.99C212.477 231.041 214.871 228.646 217.82 228.646Z" fill="#242E20"/>
<path d="M177.671 186.957C180.62 186.957 183.014 189.351 183.014 192.3C183.014 195.249 180.62 197.644 177.671 197.644C174.722 197.644 172.327 195.249 172.327 192.3C172.327 189.351 174.722 186.957 177.671 186.957Z" fill="#E0E0E0"/>
<path d="M126.74 224.247C129.689 224.247 132.084 226.641 132.084 229.59C132.084 232.539 129.689 234.934 126.74 234.934C123.791 234.934 121.396 232.539 121.396 229.59C121.396 226.641 123.791 224.247 126.74 224.247Z" fill="#242E20"/>
<path d="M130.48 276.387C133.43 276.387 135.824 278.781 135.824 281.73C135.824 284.68 133.43 287.074 130.48 287.074C127.531 287.074 125.137 284.68 125.137 281.73C125.137 278.781 127.531 276.387 130.48 276.387Z" fill="#242E20"/>
<path d="M230.58 167.926C233.529 167.926 235.924 170.321 235.924 173.27C235.924 176.219 233.529 178.614 230.58 178.614C227.631 178.614 225.236 176.219 225.236 173.27C225.236 170.321 227.631 167.926 230.58 167.926Z" fill="#242E20"/>
<path d="M205.721 109.187C208.67 109.187 211.064 111.581 211.064 114.53C211.064 117.479 208.67 119.874 205.721 119.874C202.771 119.874 200.377 117.479 200.377 114.53C200.377 111.581 202.771 109.187 205.721 109.187Z" fill="#242E20"/>
<path d="M322.32 270.902C324.957 270.902 327.098 273.043 327.098 275.68C327.098 278.317 324.957 280.458 322.32 280.458C319.683 280.458 317.542 278.317 317.542 275.68C317.542 273.043 319.683 270.902 322.32 270.902Z" fill="#242E20"/>
<path d="M290.75 198.721C294.309 198.721 297.199 201.611 297.199 205.17C297.199 208.729 294.309 211.619 290.75 211.619C287.191 211.619 284.301 208.729 284.301 205.17C284.301 201.611 287.191 198.721 290.75 198.721Z" fill="#242E20"/>
<path d="M218.59 193.812C223.038 193.812 226.648 197.423 226.648 201.87C226.648 206.317 223.038 209.928 218.59 209.928C214.143 209.928 210.532 206.317 210.532 201.87C210.532 197.423 214.143 193.812 218.59 193.812Z" fill="#242E20"/>
<path d="M122.89 173.4C126.583 173.4 129.581 176.398 129.581 180.09C129.581 183.782 126.583 186.78 122.89 186.78C119.198 186.78 116.2 183.782 116.2 180.09C116.2 176.398 119.198 173.4 122.89 173.4Z" fill="#242E20"/>
<path d="M134.77 147C138.463 147 141.46 149.998 141.46 153.69C141.46 157.382 138.463 160.38 134.77 160.38C131.078 160.38 128.08 157.382 128.08 153.69C128.08 149.998 131.078 147 134.77 147Z" fill="#242E20"/>
<path d="M91.2107 106.74C94.903 106.74 97.9008 109.738 97.9008 113.43C97.9008 117.123 94.903 120.121 91.2107 120.121C87.5184 120.121 84.5205 117.123 84.5205 113.43C84.5205 109.738 87.5184 106.74 91.2107 106.74Z" fill="#242E20"/>
<path d="M271.281 158.64C276.745 158.64 281.181 163.076 281.181 168.54C281.181 174.004 276.745 178.44 271.281 178.44C265.817 178.44 261.381 174.004 261.381 168.54C261.381 163.076 265.817 158.64 271.281 158.64Z" fill="#E0E0E0"/>
<mask id="mask3_30_892" style="mask-type:alpha" maskUnits="userSpaceOnUse" x="261" y="158" width="21" height="21">
<path d="M271.281 158.64C276.745 158.64 281.181 163.076 281.181 168.54C281.181 174.004 276.745 178.44 271.281 178.44C265.817 178.44 261.381 174.004 261.381 168.54C261.381 163.076 265.817 158.64 271.281 158.64Z" fill="white"/>
</mask>
<g mask="url(#mask3_30_892)">
<path style="mix-blend-mode:lighten" d="M273.463 160.574C276.457 160.574 278.887 163.004 278.887 165.998C278.887 168.991 276.457 171.422 273.463 171.422C270.47 171.422 268.039 168.991 268.039 165.998C268.039 163.004 270.47 160.574 273.463 160.574Z" fill="url(#paint0_radial_30_892)"/>
</g>
<path d="M89.1356 232.723C91.6772 232.723 93.7408 234.787 93.7408 237.328C93.7408 239.87 91.6772 241.934 89.1356 241.934C86.5939 241.934 84.5303 239.87 84.5303 237.328C84.5303 234.787 86.5939 232.723 89.1356 232.723Z" fill="#E0E0E0"/>
<mask id="mask4_30_892" style="mask-type:alpha" maskUnits="userSpaceOnUse" x="84" y="232" width="10" height="10">
<path d="M89.1356 232.723C91.6772 232.723 93.7408 234.787 93.7408 237.328C93.7408 239.87 91.6772 241.934 89.1356 241.934C86.5939 241.934 84.5303 239.87 84.5303 237.328C84.5303 234.787 86.5939 232.723 89.1356 232.723Z" fill="white"/>
</mask>
<g mask="url(#mask4_30_892)">
<path style="mix-blend-mode:lighten" d="M89.8362 230.531C92.6212 230.531 94.8824 232.792 94.8824 235.577C94.8824 238.362 92.6212 240.623 89.8362 240.623C87.0512 240.623 84.79 238.362 84.79 235.577C84.79 232.792 87.0512 230.531 89.8362 230.531Z" fill="url(#paint1_radial_30_892)"/>
</g>
<path d="M276.163 324.896C279.969 324.896 283.059 327.986 283.059 331.792C283.059 335.598 279.969 338.688 276.163 338.688C272.358 338.688 269.268 335.598 269.268 331.792C269.268 327.986 272.358 324.896 276.163 324.896Z" fill="#242E20"/>
<mask id="mask5_30_892" style="mask-type:alpha" maskUnits="userSpaceOnUse" x="269" y="324" width="15" height="15">
<path d="M276.163 324.896C279.969 324.896 283.059 327.986 283.059 331.792C283.059 335.598 279.969 338.688 276.163 338.688C272.358 338.688 269.268 335.598 269.268 331.792C269.268 327.986 272.358 324.896 276.163 324.896Z" fill="#FE7033"/>
</mask>
<g mask="url(#mask5_30_892)">
<path style="mix-blend-mode:lighten" d="M278.384 325.55C281.338 325.55 283.737 327.949 283.737 330.903C283.737 333.858 281.338 336.256 278.384 336.256C275.43 336.256 273.031 333.858 273.031 330.903C273.031 327.949 275.43 325.55 278.384 325.55Z" fill="url(#paint2_radial_30_892)"/>
</g>
<path d="M181.971 60.7793C187.593 60.7793 192.158 65.3443 192.158 70.9669C192.158 76.5894 187.593 81.1544 181.971 81.1544C176.348 81.1544 171.783 76.5894 171.783 70.9669C171.783 65.3443 176.348 60.7793 181.971 60.7793Z" fill="#242E20"/>
<mask id="mask6_30_892" style="mask-type:alpha" maskUnits="userSpaceOnUse" x="171" y="60" width="22" height="22">
<path d="M181.971 60.7793C187.593 60.7793 192.158 65.3443 192.158 70.9669C192.158 76.5894 187.593 81.1544 181.971 81.1544C176.348 81.1544 171.783 76.5894 171.783 70.9669C171.783 65.3443 176.348 60.7793 181.971 60.7793Z" fill="#FE7033"/>
</mask>
<g mask="url(#mask6_30_892)">
<path style="mix-blend-mode:lighten" d="M184.154 62.1196C187.108 62.1196 189.507 64.5183 189.507 67.4726C189.507 70.4269 187.108 72.8255 184.154 72.8255C181.199 72.8255 178.801 70.4269 178.801 67.4726C178.801 64.5183 181.199 62.1196 184.154 62.1196Z" fill="url(#paint3_radial_30_892)"/>
</g>
<path d="M65.62 158.986C69.6175 158.986 72.8631 162.232 72.8631 166.229C72.8631 170.227 69.6175 173.472 65.62 173.472C61.6226 173.472 58.377 170.227 58.377 166.229C58.377 162.232 61.6226 158.986 65.62 158.986Z" fill="#242E20"/>
<mask id="mask7_30_892" style="mask-type:alpha" maskUnits="userSpaceOnUse" x="58" y="158" width="15" height="16">
<path d="M65.62 158.986C69.6175 158.986 72.8631 162.232 72.8631 166.229C72.8631 170.227 69.6175 173.472 65.62 173.472C61.6226 173.472 58.377 170.227 58.377 166.229C58.377 162.232 61.6226 158.986 65.62 158.986Z" fill="#FE7033"/>
</mask>
<g mask="url(#mask7_30_892)">
<path style="mix-blend-mode:lighten" d="M67.1148 158.039C70.0691 158.039 72.4678 160.438 72.4678 163.392C72.4678 166.346 70.0691 168.745 67.1148 168.745C64.1604 168.745 61.7617 166.346 61.7617 163.392C61.7617 160.438 64.1604 158.039 67.1148 158.039Z" fill="url(#paint4_radial_30_892)"/>
</g>
<path d="M327.161 233.66C331.653 233.66 335.301 237.308 335.301 241.8C335.301 246.293 331.653 249.94 327.161 249.94C322.668 249.94 319.021 246.293 319.021 241.8C319.021 237.308 322.668 233.66 327.161 233.66Z" fill="#242E20"/>
<mask id="mask8_30_892" style="mask-type:alpha" maskUnits="userSpaceOnUse" x="319" y="233" width="17" height="17">
<path d="M327.161 233.66C331.653 233.66 335.301 237.308 335.301 241.8C335.301 246.293 331.653 249.94 327.161 249.94C322.668 249.94 319.021 246.293 319.021 241.8C319.021 237.308 322.668 233.66 327.161 233.66Z" fill="#FE7033"/>
</mask>
<g mask="url(#mask8_30_892)">
<path style="mix-blend-mode:lighten" d="M329.354 234.599C332.308 234.599 334.707 236.998 334.707 239.952C334.707 242.906 332.308 245.305 329.354 245.305C326.4 245.305 324.001 242.906 324.001 239.952C324.001 236.998 326.4 234.599 329.354 234.599Z" fill="url(#paint5_radial_30_892)"/>
</g>
<path d="M334.99 137.837C337.116 137.837 338.842 139.563 338.842 141.689C338.842 143.815 337.116 145.541 334.99 145.541C332.865 145.541 331.139 143.815 331.139 141.689C331.139 139.563 332.865 137.837 334.99 137.837Z" fill="#242E20"/>
</g>
</g>
</g>
<defs>
<radialGradient id="paint0_radial_30_892" cx="0" cy="0" r="1" gradientUnits="userSpaceOnUse" gradientTransform="translate(273.463 165.998) scale(23.8418)">
<stop stop-color="#C2B8F3" stop-opacity="0"/>
<stop offset="0.5" stop-color="#6B5EA7"/>
<stop offset="1" stop-color="#14055C"/>
</radialGradient>
<radialGradient id="paint1_radial_30_892" cx="0" cy="0" r="1" gradientUnits="userSpaceOnUse" gradientTransform="translate(89.8362 235.577) scale(22.1811)">
<stop stop-color="#C8BEF7" stop-opacity="0"/>
<stop offset="0.5" stop-color="#6E62A9"/>
<stop offset="1" stop-color="#14055C"/>
</radialGradient>
<radialGradient id="paint2_radial_30_892" cx="0" cy="0" r="1" gradientUnits="userSpaceOnUse" gradientTransform="translate(278.384 330.903) scale(23.5294)">
<stop stop-color="#FCFCFC" stop-opacity="0"/>
<stop offset="0.5" stop-color="#A79FCD"/>
<stop offset="1" stop-color="#51419E"/>
</radialGradient>
<radialGradient id="paint3_radial_30_892" cx="0" cy="0" r="1" gradientUnits="userSpaceOnUse" gradientTransform="translate(184.154 67.4726) scale(23.5294)">
<stop stop-color="#FEFEFE" stop-opacity="0"/>
<stop offset="0.5" stop-color="#A79FCE"/>
<stop offset="1" stop-color="#51419E"/>
</radialGradient>
<radialGradient id="paint4_radial_30_892" cx="0" cy="0" r="1" gradientUnits="userSpaceOnUse" gradientTransform="translate(67.1148 163.392) scale(23.5299)">
<stop stop-color="#FEFEFE" stop-opacity="0"/>
<stop offset="0.5" stop-color="#A79FCE"/>
<stop offset="1" stop-color="#51419E"/>
</radialGradient>
<radialGradient id="paint5_radial_30_892" cx="0" cy="0" r="1" gradientUnits="userSpaceOnUse" gradientTransform="translate(329.354 239.952) scale(23.5294)">
<stop stop-color="#FEFEFE" stop-opacity="0"/>
<stop offset="0.5" stop-color="#A79FCE"/>
<stop offset="1" stop-color="#51419E"/>
</radialGradient>
</defs>
</svg>
